<?xml version="1.0" encoding="UTF-8"?>
<svg width="127px" height="37px" viewBox="0 0 127 37" version="1.1" xmlns="http://www.w3.org/2000/svg" xmlns:xlink="http://www.w3.org/1999/xlink">
    <!-- Generator: Sketch 52.2 (67145) - http://www.bohemiancoding.com/sketch -->
    <title>Group 3</title>
    <desc>Created with Sketch.</desc>
    <defs>
        <linearGradient x1="50%" y1="0%" x2="50%" y2="100%" id="linearGradient-1">
            <stop stop-color="#4ACCE8" offset="0%"></stop>
            <stop stop-color="#0759BD" offset="100%"></stop>
        </linearGradient>
    </defs>
    <g id="Page-1" stroke="none" stroke-width="1" fill="none" fill-rule="evenodd">
        <g id="Desktop" transform="translate(-140.000000, -44.000000)">
            <g id="Group-3" transform="translate(141.000000, 39.000000)">
                <g id="Group-6">
                    <g id="Group" transform="translate(0.000000, 5.082353)" fill="url(#linearGradient-1)">
                        <path d="M24.6269199,13.6311428 L38.5504334,21.1406018 C38.8384331,21.2959305 38.9459841,21.6553191 38.7906554,21.9433187 C38.7400519,22.0371442 38.6650715,22.1155788 38.5736186,22.1703539 L15.5966899,35.9322371 C15.4182509,36.039112 15.1968372,36.0445898 15.0133316,35.9466694 L-0.220243478,27.8178891 C-0.508931013,27.6638427 -0.61807921,27.3049359 -0.4640328,27.0162484 C-0.409288037,26.9136551 -0.325563201,26.8294399 -0.223291348,26.7740969 L24.0636988,13.631535 C24.2393703,13.5364728 24.4511161,13.5363254 24.6269199,13.6311428 Z" id="Rectangle-Copy" transform="translate(19.185667, 24.785342) scale(-1, 1) translate(-19.185667, -24.785342) "></path>
                        <path d="M22.6469991,7.89933366 L36.619779,0.126772199 C36.9057318,-0.0322931826 37.2664903,0.0705693789 37.4255557,0.356522161 C37.4693938,0.435330194 37.4946635,0.523105504 37.4994393,0.613159257 L38.9121518,27.2519972 C38.924342,27.4818619 38.8022899,27.6979818 38.5991479,27.8062392 L23.4226651,35.8940135 C23.1338943,36.0479038 22.7750466,35.9385615 22.6211563,35.6497907 C22.5751227,35.5634099 22.5512073,35.4669697 22.5515474,35.369089 L22.6469991,7.89933366 Z" id="Rectangle"></path>
                    </g>
                    <path d="M65.8965647,38 C65.4357624,38 65.0630602,37.8848012 64.7784471,37.6544 C64.4938339,37.4239988 64.2973182,37.1326135 64.1888941,36.7802353 L55.9758118,10.7585882 L55.8944941,10.3926588 C55.8944941,10.1758107 55.9825874,9.979295 56.1587765,9.80310588 C56.3349656,9.62691677 56.5450341,9.53882353 56.7889882,9.53882353 L62.1152941,9.53882353 C62.5218844,9.53882353 62.8539281,9.65402238 63.1114353,9.88442353 C63.3689425,10.1148247 63.5383525,10.3655516 63.6196706,10.6366118 L69.1492706,29.0144 L74.7195294,10.6366118 C74.8008475,10.3384456 74.9702575,10.0809423 75.2277647,9.86409412 C75.4852719,9.64724597 75.8173156,9.53882353 76.2239059,9.53882353 L81.5502118,9.53882353 C81.7941659,9.53882353 81.997458,9.62691677 82.1600941,9.80310588 C82.3227302,9.979295 82.4040471,10.1758107 82.4040471,10.3926588 C82.4040471,10.5281889 82.3904943,10.6501642 82.3633882,10.7585882 L74.1096471,36.7802353 C74.028329,37.1326135 73.8453661,37.4239988 73.5607529,37.6544 C73.2761398,37.8848012 72.9034376,38 72.4426353,38 L65.8965647,38 Z M87.1204706,38 C86.8494104,38 86.6122363,37.898354 86.4089412,37.6950588 C86.205646,37.4917637 86.104,37.2545896 86.104,36.9835294 L86.104,10.5552941 C86.104,10.2571279 86.205646,10.0131774 86.4089412,9.82343529 C86.6122363,9.63369317 86.8494104,9.53882353 87.1204706,9.53882353 L92.9346824,9.53882353 C93.2328485,9.53882353 93.4767991,9.63369317 93.6665412,9.82343529 C93.8562833,10.0131774 93.9511529,10.2571279 93.9511529,10.5552941 L93.9511529,36.9835294 C93.9511529,37.2545896 93.8562833,37.4917637 93.6665412,37.6950588 C93.4767991,37.898354 93.2328485,38 92.9346824,38 L87.1204706,38 Z M97.8950588,38 C97.6782107,38 97.481695,37.9119068 97.3055059,37.7357176 C97.1293168,37.5595285 97.0412235,37.3630128 97.0412235,37.1461647 C97.0412235,36.9835286 97.0547763,36.8615533 97.0818824,36.7802353 L106.555388,10.7179294 C106.826448,9.93185489 107.368561,9.53882353 108.181741,9.53882353 L114.524518,9.53882353 C115.337698,9.53882353 115.87981,9.93185489 116.150871,10.7179294 L125.624376,36.7802353 C125.651482,36.8615533 125.665035,36.9835286 125.665035,37.1461647 C125.665035,37.3630128 125.576942,37.5595285 125.400753,37.7357176 C125.224564,37.9119068 125.028048,38 124.8112,38 L119.525553,38 C118.875009,38 118.414213,37.7018383 118.143153,37.1055059 L116.679435,33.1616 L106.026824,33.1616 L104.563106,37.1055059 C104.292046,37.7018383 103.83125,38 103.180706,38 L97.8950588,38 Z M107.734494,27.0627765 L114.971765,27.0627765 L111.353129,16.6947765 L107.734494,27.0627765 Z" id="VIA" fill="#FFFFFF"></path>
                </g>
            </g>
        </g>
    </g>
</svg>